<svg data-v-423bf9ae="" xmlns="http://www.w3.org/2000/svg" viewBox="0 0 107.96759181449906 60" class="font"><!----><!----><defs data-v-423bf9ae=""><linearGradient data-v-423bf9ae="" gradientTransform="rotate(25)" id="c0dc32cf-3e3c-454a-988d-bf96ff0a6b44" x1="0%" y1="0%" x2="100%" y2="0%"><stop data-v-423bf9ae="" offset="0%" style="stop-color: rgb(1, 100, 139); stop-opacity: 1;"></stop><stop data-v-423bf9ae="" offset="100%" style="stop-color: rgb(91, 208, 164); stop-opacity: 1;"></stop></linearGradient></defs><g data-v-423bf9ae="" id="dbf7bdd9-6a2d-47a5-a99e-4f094f07e75d" fill="url(#c0dc32cf-3e3c-454a-988d-bf96ff0a6b44)" transform="matrix(4.051316824013275,0,0,4.051316824013275,-0.040513186841295123,-19.851453300865884)"><path d="M1.79 18.33L1.79 18.33Q2.11 18.33 2.29 17.65L2.29 17.65L2.29 17.65Q2.46 16.98 2.46 16.33L2.46 16.33L2.46 16.33Q2.46 15.68 2.24 15.05L2.24 15.05L2.24 15.05Q1.23 16.13 1.23 17.25L1.23 17.25L1.23 17.25Q1.23 17.72 1.41 18.02L1.41 18.02L1.41 18.02Q1.58 18.33 1.79 18.33L1.79 18.33ZM1.11 11.76L1.11 11.76L0.57 11.90L0.57 11.90Q0.42 11.90 0.42 11.77L0.42 11.77L0.42 11.77Q0.42 11.40 1.11 11.01L1.11 11.01L1.11 11.01Q1.79 10.63 2.16 10.63L2.16 10.63L2.16 10.63Q2.53 10.63 2.70 10.80L2.70 10.80L2.70 10.80Q2.87 10.98 2.87 11.24L2.87 11.24L2.87 11.24Q2.87 11.80 2.07 12.70L2.07 12.70L2.07 12.70Q2.04 12.73 2.04 12.77L2.04 12.77L2.04 12.77Q2.04 12.88 2.24 12.88L2.24 12.88L2.24 12.88Q2.84 13.02 3.16 13.78L3.16 13.78L3.16 13.78Q3.60 13.44 3.90 13.26L3.90 13.26L3.90 13.26Q4.20 13.09 4.24 13.09L4.24 13.09L4.24 13.09Q4.42 13.09 4.42 13.29L4.42 13.29L4.42 13.29Q4.41 13.34 4.12 13.53L4.12 13.53L4.12 13.53Q3.84 13.72 3.74 13.79L3.74 13.79L3.28 14.13L3.28 14.13Q3.36 14.42 3.36 14.80L3.36 14.80L3.36 14.80Q3.36 15.19 3.21 15.97L3.21 15.97L3.21 15.97Q3.05 16.74 2.77 17.61L2.77 17.61L2.77 17.61Q2.49 18.48 1.98 19.10L1.98 19.10L1.98 19.10Q1.47 19.71 0.87 19.71L0.87 19.71L0.87 19.71Q0.49 19.71 0.25 19.40L0.25 19.40L0.25 19.40Q0.01 19.08 0.01 18.68L0.01 18.68L0.01 18.68Q0.01 16.83 2.09 14.73L2.09 14.73L2.09 14.73Q1.71 13.99 1.09 13.99L1.09 13.99L1.09 13.99Q0.81 13.99 0.63 14.13L0.63 14.13L0.63 14.13Q0.45 14.27 0.34 14.27L0.34 14.27L0.34 14.27Q0.24 14.27 0.24 14.13L0.24 14.13L0.24 14.13Q0.24 14 0.29 13.94L0.29 13.94L0.29 13.94Q0.35 13.89 0.51 13.73L0.51 13.73L0.51 13.73Q0.67 13.58 0.77 13.47L0.77 13.47L0.77 13.47Q0.87 13.37 1.04 13.19L1.04 13.19L1.04 13.19Q1.20 13.01 1.29 12.87L1.29 12.87L1.29 12.87Q1.54 12.49 1.54 12.27L1.54 12.27L1.54 12.27Q1.54 12.05 1.42 11.91L1.42 11.91L1.42 11.91Q1.30 11.76 1.11 11.76ZM4.73 12.57L4.73 12.57Q4.73 12.35 5.21 12.09L5.21 12.09L5.21 12.09Q5.70 11.83 6.11 11.83L6.11 11.83L6.11 11.83Q6.52 11.83 6.99 12.02L6.99 12.02L6.99 12.02Q7.46 12.21 7.72 12.21L7.72 12.21L7.72 12.21Q7.98 12.21 8.12 12.18L8.12 12.18L8.12 12.18Q8.29 12.18 8.30 12.29L8.30 12.29L8.30 12.29Q8.30 12.52 7.82 12.77L7.82 12.77L7.82 12.77Q7.34 13.02 6.92 13.02L6.92 13.02L6.92 13.02Q6.50 13.02 6.04 12.84L6.04 12.84L6.04 12.84Q5.59 12.66 5.31 12.66L5.31 12.66L5.31 12.66Q5.04 12.66 4.91 12.68L4.91 12.68L4.91 12.68Q4.75 12.68 4.73 12.57L4.73 12.57ZM12.36 13.23L12.36 13.23L12.36 13.23Q12.47 13.23 12.73 13.06L12.73 13.06L12.73 13.06Q12.98 12.89 13.13 12.73L13.13 12.73L13.29 12.57L13.29 12.57Q13.38 12.47 13.48 12.47L13.48 12.47L13.48 12.47Q13.65 12.47 13.65 12.67L13.65 12.67L13.65 12.67Q13.65 12.74 13.64 12.78L13.64 12.78L13.64 12.78Q13.27 13.66 12.29 14.20L12.29 14.20L12.29 14.20Q11.31 14.74 10.54 14.74L10.54 14.74L10.54 14.74Q9.04 14.74 9.04 13.57L9.04 13.57L9.04 13.57Q9.04 13.41 9.41 13.08L9.41 13.08L9.41 13.08Q9.77 12.74 9.94 12.66L9.94 12.66L9.94 12.66Q10.05 12.57 10.12 12.57L10.12 12.57L10.12 12.57Q10.18 12.57 10.22 12.63L10.22 12.63L10.22 12.63Q10.26 12.68 10.32 12.77L10.32 12.77L10.32 12.77Q10.37 12.85 10.42 12.91L10.42 12.91L10.42 12.91Q10.46 12.96 10.53 13.06L10.53 13.06L10.53 13.06Q10.60 13.16 10.68 13.22L10.68 13.22L10.68 13.22Q10.75 13.29 10.85 13.34L10.85 13.34L10.85 13.34Q11.03 13.48 11.24 13.48L11.24 13.48L11.24 13.48Q11.44 13.48 11.44 13.24L11.44 13.24L11.44 13.24Q11.44 12.66 11.00 12.23L11.00 12.23L11.00 12.23Q10.57 11.80 10.28 11.80L10.28 11.80L10.28 11.80Q10.21 11.80 10.14 11.89L10.14 11.89L9.62 12.40L9.62 12.40Q9.49 12.53 9.44 12.53L9.44 12.53L9.44 12.53Q9.23 12.53 9.23 12.35L9.23 12.35L9.23 12.35Q10.72 10.51 11.00 10.51L11.00 10.51L11.00 10.51Q11.40 10.51 11.90 11.05L11.90 11.05L11.90 11.05Q12.40 11.58 12.40 12.11L12.40 12.11L12.40 12.11Q12.40 12.61 12.33 12.88L12.33 12.88L12.33 12.88Q12.25 13.15 12.25 13.19L12.25 13.19L12.25 13.19Q12.25 13.23 12.36 13.23ZM14.11 6.19L14.11 6.19L14.11 6.19Q13.54 6.19 13.54 9.98L13.54 9.98L13.54 10.82L13.54 10.82Q13.90 9.90 14.22 8.78L14.22 8.78L14.22 8.78Q14.53 7.66 14.53 6.92L14.53 6.92L14.53 6.92Q14.53 6.19 14.11 6.19ZM13.68 13.44L13.68 13.44L13.68 13.44Q13.82 13.44 14.49 12.52L14.49 12.52L14.49 12.52Q15.16 11.59 15.34 11.58L15.34 11.58L15.34 11.58Q15.53 11.58 15.71 11.89L15.71 11.89L15.71 11.89Q15.89 12.19 16.06 12.56L16.06 12.56L16.06 12.56Q16.24 12.94 16.63 13.25L16.63 13.25L16.63 13.25Q17.02 13.57 17.42 13.57L17.42 13.57L17.42 13.57Q17.81 13.57 17.89 13.51L17.89 13.51L17.89 13.51Q17.98 13.45 18.02 13.45L18.02 13.45L18.02 13.45Q18.07 13.45 18.07 13.57L18.07 13.57L18.07 13.57Q18.06 13.85 17.63 14.24L17.63 14.24L17.63 14.24Q17.19 14.64 16.48 14.64L16.48 14.64L16.48 14.64Q15.27 14.64 14.80 13.26L14.80 13.26L14.80 13.26Q14.76 13.17 14.72 13.17L14.72 13.17L14.72 13.17Q14.69 13.17 14.62 13.23L14.62 13.23L14.62 13.23Q14.55 13.29 14.32 13.55L14.32 13.55L14.32 13.55Q14.10 13.82 13.87 14.10L13.87 14.10L13.87 14.10Q13.64 14.38 13.58 14.43L13.58 14.43L13.58 14.43Q13.52 14.49 13.37 14.49L13.37 14.49L13.37 14.49Q13.22 14.49 13.20 14.32L13.20 14.32L13.20 14.32Q13.08 13.06 13.08 11.68L13.08 11.68L13.08 11.68Q13.08 10.30 13.11 9.55L13.11 9.55L13.11 9.55Q13.15 8.79 13.26 7.60L13.26 7.60L13.26 7.60Q13.37 6.41 13.66 5.66L13.66 5.66L13.66 5.66Q13.94 4.90 14.38 4.90L14.38 4.90L14.38 4.90Q15.29 4.90 15.29 6.17L15.29 6.17L15.29 6.17Q15.29 7.27 14.70 8.92L14.70 8.92L14.70 8.92Q14.11 10.58 13.57 11.55L13.57 11.55L13.57 11.55Q13.62 13.44 13.68 13.44ZM20.76 12.66L20.76 12.66L20.76 12.66Q20.10 12.66 19.73 12.32L19.73 12.32L19.73 12.32Q19.35 11.98 19.29 11.47L19.29 11.47L19.29 11.47Q19.07 11.63 19.07 12.09L19.07 12.09L19.07 12.09Q19.07 12.54 19.33 12.89L19.33 12.89L19.33 12.89Q19.59 13.23 19.97 13.23L19.97 13.23L19.97 13.23Q20.36 13.23 20.56 13.03L20.56 13.03L20.56 13.03Q20.76 12.84 20.76 12.66ZM21.31 11.72L21.31 11.72L21.31 11.72Q21.35 11.84 21.41 11.84L21.41 11.84L21.41 11.84Q21.48 11.84 21.63 11.77L21.63 11.77L21.63 11.77Q21.78 11.69 21.90 11.69L21.90 11.69L21.90 11.69Q22.01 11.69 22.01 11.83L22.01 11.83L22.01 11.83Q22.01 11.97 21.71 12.29L21.71 12.29L21.71 12.29Q21.41 12.61 21.20 12.61L21.20 12.61L21.20 12.61Q20.90 13.41 20.22 14.09L20.22 14.09L20.22 14.09Q19.54 14.77 18.83 14.77L18.83 14.77L18.83 14.77Q18.33 14.77 17.99 14.44L17.99 14.44L17.99 14.44Q17.65 14.11 17.65 13.47L17.65 13.47L17.65 13.47Q17.65 12.84 18.19 12.09L18.19 12.09L18.19 12.09Q18.72 11.34 19.28 11.34L19.28 11.34L19.28 11.28L19.28 11.28Q19.28 10.98 19.49 10.79L19.49 10.79L19.49 10.79Q19.70 10.60 20.01 10.60L20.01 10.60L20.01 10.60Q20.96 10.60 21.31 11.72ZM23.55 12.24L23.55 12.24L23.55 12.24Q23.16 12.24 22.97 13.68L22.97 13.68L22.97 13.68Q23.34 14.11 23.83 14.11L23.83 14.11L23.83 14.11Q24.05 14.11 24.33 13.97L24.33 13.97L24.33 13.97Q24.44 13.64 24.44 13.27L24.44 13.27L24.44 13.27Q24.44 12.91 24.15 12.57L24.15 12.57L24.15 12.57Q23.86 12.24 23.55 12.24ZM22.43 13.05L22.43 13.05L22.53 11.28L22.53 11.28Q22.53 11.20 22.48 11.20L22.48 11.20L22.48 11.20Q22.43 11.20 22.34 11.33L22.34 11.33L22.34 11.33Q22.25 11.45 22.09 11.45L22.09 11.45L22.09 11.45Q21.94 11.45 21.94 11.35L21.94 11.35L21.94 11.35Q21.94 11.26 22.06 11.11L22.06 11.11L22.06 11.11Q22.19 10.96 22.35 10.58L22.35 10.58L22.35 10.58Q22.51 10.19 22.64 9.93L22.64 9.93L22.64 9.93Q22.76 9.67 22.88 9.67L22.88 9.67L22.88 9.67Q23.03 9.67 23.11 9.81L23.11 9.81L23.11 9.81Q23.20 9.94 23.20 10.05L23.20 10.05L23.20 10.05Q23.20 10.16 23.07 10.81L23.07 10.81L23.07 10.81Q22.95 11.45 22.95 11.75L22.95 11.75L22.95 11.75Q22.95 12.05 23.02 12.05L23.02 12.05L23.02 12.05Q23.04 12.05 23.28 11.75L23.28 11.75L23.28 11.75Q23.51 11.45 23.84 11.15L23.84 11.15L23.84 11.15Q24.16 10.85 24.44 10.85L24.44 10.85L24.44 10.85Q25.48 10.85 25.48 12.04L25.48 12.04L25.48 12.04Q25.48 12.87 25.02 13.55L25.02 13.55L25.02 13.55Q25.72 13.06 26.29 12.53L26.29 12.53L26.49 12.35L26.49 12.35Q26.66 12.35 26.66 12.45L26.66 12.45L26.66 12.45Q26.66 12.68 26.06 13.24L26.06 13.24L26.06 13.24Q25.47 13.79 24.54 14.34L24.54 14.34L24.54 14.34Q23.60 14.88 22.82 15.05L22.82 15.05L22.82 15.05Q22.79 15.75 22.79 16.18L22.79 16.18L22.79 16.18Q22.79 16.62 22.84 16.96L22.84 16.96L22.84 16.96Q22.89 17.30 22.89 17.46L22.89 17.46L22.89 17.46Q22.89 17.63 22.76 17.73L22.76 17.73L22.76 17.73Q22.64 17.84 22.50 17.84L22.50 17.84L22.50 17.84Q22.32 17.84 22.30 17.60L22.30 17.60L22.30 17.60Q22.29 17.36 22.29 16.44L22.29 16.44L22.29 16.44Q22.29 15.51 22.30 15.12L22.30 15.12L22.30 15.12Q21.92 15.12 21.70 14.78L21.70 14.78L21.70 14.78Q21.48 14.43 21.48 14.13L21.48 14.13L21.48 14.13Q21.48 13.82 21.75 13.44L21.75 13.44L21.75 13.44Q22.02 13.06 22.43 13.05Z"></path></g><!----><!----></svg>